<svg width="26" height="34" viewBox="0 0 26 34" fill="none" xmlns="http://www.w3.org/2000/svg">
<path d="M3.2184 33C1.99577 33 1 32.0059 1 30.7826V17.2954C1 16.1688 1.85727 15.2259 2.97125 15.1006V10.7588C2.97125 10.7111 2.97842 10.6646 2.99394 10.618C3.24348 5.22362 7.66596 1 13.0711 1C18.4762 1 22.8927 5.22482 23.1387 10.6216C23.1542 10.6658 23.1625 10.7123 23.1625 10.76V15.0994C24.2813 15.22 25.1422 16.164 25.1422 17.2954V30.7826C25.1422 32.0047 24.1476 33 22.9238 33H3.2184ZM3.2184 15.979C2.49247 15.979 1.90145 16.5698 1.90145 17.2954V30.7826C1.90145 31.5082 2.49247 32.0989 3.2184 32.0989H22.9238C23.6497 32.0989 24.2407 31.5082 24.2407 30.7826V17.2954C24.2407 16.5698 23.6497 15.979 22.9238 15.979H3.2184ZM22.2611 15.0779V10.8865C22.2515 10.8507 22.2456 10.8149 22.2432 10.7767C22.0748 5.79887 18.0452 1.90106 13.0711 1.90106C8.09698 1.90106 4.05896 5.79887 3.88942 10.7756C3.88703 10.8161 3.88225 10.8519 3.8727 10.8842V15.0779H6.5078L6.52332 10.8591C6.64869 7.30978 9.52498 4.53261 13.0711 4.53261C16.6172 4.53261 19.4959 7.31216 19.6093 10.8603L19.6272 11.2696V15.0779H22.2611ZM18.7257 15.0779L18.7078 10.8889C18.6099 7.83131 16.1336 5.43367 13.0711 5.43367C10.0085 5.43367 7.53104 7.83012 7.42478 10.8901L7.40806 11.2828V15.0779H18.7257Z" fill="#D74113" stroke="#D74113" stroke-width="1.06667"/>
<path d="M13.0711 30.1334C9.71054 30.1334 6.97586 27.3999 6.97586 24.0408C6.97586 20.6818 9.71054 17.9469 13.0711 17.9469C16.4317 17.9469 19.1663 20.6804 19.1663 24.0408C19.1663 27.4013 16.4317 30.1334 13.0711 30.1334ZM13.0711 18.9198C10.2472 18.9198 7.94915 21.2168 7.94915 24.0395C7.94915 26.8622 10.2472 29.1592 13.0711 29.1592C15.895 29.1592 18.193 26.8622 18.193 24.0395C18.193 21.2168 15.895 18.9198 13.0711 18.9198Z" fill="#D74113" stroke="#D74113" stroke-width="0.862613"/>
<path d="M11.1046 26.7487V26.1257C11.3852 25.9849 11.6109 25.788 11.7804 25.5338C11.95 25.2796 12.0347 24.9908 12.0347 24.6697C12.0347 24.6053 12.0311 24.5444 12.0264 24.4859C12.0204 24.4274 12.012 24.369 12.0001 24.3105H11.1225V23.7054L11.71 23.6612H11.815C11.7685 23.5097 11.7255 23.3581 11.6873 23.2089C11.6491 23.0597 11.63 22.9118 11.63 22.7662C11.63 22.2398 11.7935 21.8245 12.1219 21.5202C12.449 21.2159 12.8705 21.0643 13.3851 21.0643C13.7075 21.0643 13.9833 21.1252 14.2149 21.2481C14.4466 21.371 14.6495 21.5381 14.825 21.7481L14.2639 22.3007C14.1528 22.1718 14.0358 22.0716 13.9128 21.9976C13.7899 21.9248 13.6442 21.8878 13.4735 21.8878C13.2048 21.8878 12.9923 21.9701 12.8371 22.1336C12.6819 22.2971 12.6042 22.5251 12.6042 22.8175C12.6042 22.9643 12.6186 23.1051 12.6484 23.2435C12.6783 23.3808 12.7129 23.5204 12.7535 23.6601H14.1051V24.3093H12.9027C12.9207 24.4203 12.929 24.5432 12.929 24.6781C12.929 24.9359 12.8908 25.1531 12.8144 25.3321C12.738 25.5111 12.621 25.6841 12.4634 25.8536V25.8882H14.8334V26.7475H11.1034L11.1046 26.7487Z" fill="#D74113" stroke="#D74113" stroke-width="0.304762" stroke-linejoin="round"/>
</svg>
