<svg width="38" height="38" viewBox="0 0 38 38" fill="none" xmlns="http://www.w3.org/2000/svg">
<path d="M28 15.2619V10.6667C28 9.19391 26.7563 8 25.2222 8H5.77778C4.24365 8 3 9.19391 3 10.6667V29.3333C3 30.8061 4.24365 32 5.77778 32H16.12" stroke="#D74113" stroke-width="2" stroke-linecap="round" stroke-linejoin="round"/>
<path d="M21 5V10" stroke="#D74113" stroke-width="2" stroke-linecap="round" stroke-linejoin="round"/>
<path d="M10 5V10" stroke="#D74113" stroke-width="2" stroke-linecap="round" stroke-linejoin="round"/>
<path d="M4 15H18" stroke="#D74113" stroke-width="2" stroke-linecap="square" stroke-linejoin="round"/>
<circle cx="23" cy="24" r="10" stroke="#D74113" stroke-width="2"/>
<path d="M19.6914 28V26.6893C20.1235 26.4973 20.4836 26.2092 20.7717 25.8251C21.0693 25.441 21.2182 24.9945 21.2182 24.4856C21.2182 24.4184 21.2134 24.356 21.2038 24.2984C21.2038 24.2312 21.199 24.1639 21.1893 24.0967H19.749V22.858L20.7284 22.786H20.8149C20.7476 22.594 20.69 22.4019 20.642 22.2099C20.6036 22.0083 20.5844 21.8162 20.5844 21.6338C20.5844 21.0288 20.714 20.5055 20.9733 20.0638C21.2422 19.6221 21.607 19.2812 22.0679 19.0412C22.5385 18.8011 23.0714 18.6811 23.6667 18.6811C24.2044 18.6811 24.6701 18.7819 25.0638 18.9836C25.4671 19.1852 25.832 19.4733 26.1585 19.8478L25.0062 21C24.843 20.7984 24.6701 20.6495 24.4877 20.5535C24.3053 20.4479 24.0988 20.3951 23.8684 20.3951C23.4843 20.3951 23.177 20.5055 22.9466 20.7264C22.7257 20.9472 22.6153 21.2881 22.6153 21.749C22.6153 21.9218 22.6297 22.0947 22.6585 22.2675C22.6969 22.4404 22.7353 22.6132 22.7737 22.786H24.9054V24.0967H23.0474C23.057 24.1639 23.0618 24.2312 23.0618 24.2984C23.0714 24.356 23.0762 24.4232 23.0762 24.5C23.0762 24.8457 23.0234 25.1434 22.9177 25.393C22.8217 25.6427 22.6585 25.8971 22.428 26.1564V26.214H26.1585V28H19.6914Z" fill="#D74113"/>
<path d="M7 20H9" stroke="#D74113" stroke-width="2" stroke-linecap="round" stroke-linejoin="round"/>
<path d="M7 27H9" stroke="#D74113" stroke-width="2" stroke-linecap="round" stroke-linejoin="round"/>
</svg>
