<svg width="38" height="38" viewBox="0 0 38 38" fill="none" xmlns="http://www.w3.org/2000/svg">
<path d="M14.875 19.2229L17.4026 22.2802C17.7651 22.7186 18.4371 22.7186 18.7996 22.2801L24.8437 14.9688" stroke="#D74113" stroke-width="2" stroke-linecap="round"/>
<path d="M18.4967 33.9999C18.1482 34.0015 17.8042 33.9213 17.4924 33.7657C17.1806 33.6101 16.9096 33.3834 16.7014 33.104C16.5033 32.8399 16.2146 32.6583 15.8909 32.5941C15.5671 32.5299 15.231 32.5876 14.9472 32.7561C14.6472 32.933 14.3103 33.0377 13.963 33.0621C13.6156 33.0864 13.2674 33.0297 12.9457 32.8965C12.6241 32.7632 12.3378 32.557 12.1094 32.2941C11.8811 32.0312 11.7169 31.7189 11.6299 31.3817C11.5478 31.0627 11.351 30.7852 11.0771 30.6021C10.8033 30.4191 10.4716 30.3434 10.1455 30.3895C9.80043 30.4388 9.44862 30.407 9.11794 30.2967C8.78726 30.1864 8.48679 30.0007 8.2403 29.7541C7.99382 29.5076 7.80809 29.2071 7.69782 28.8764C7.58755 28.5457 7.55576 28.1938 7.60497 27.8487C7.65122 27.5226 7.57559 27.1908 7.39257 26.9169C7.20954 26.643 6.93196 26.4462 6.61294 26.3642C6.2758 26.2772 5.96349 26.113 5.70064 25.8846C5.43779 25.6562 5.2316 25.3699 5.09833 25.0482C4.96506 24.7265 4.90837 24.3782 4.93271 24.0309C4.95706 23.6835 5.06179 23.3465 5.23863 23.0466C5.4066 22.7636 5.46448 22.4287 5.40122 22.1057C5.33795 21.7828 5.15797 21.4945 4.89565 21.2958C4.61748 21.0864 4.39177 20.8152 4.23634 20.5036C4.08091 20.192 4 19.8485 4 19.5003C4 19.1521 4.08091 18.8086 4.23634 18.497C4.39177 18.1854 4.61748 17.9142 4.89565 17.7048C5.15892 17.5068 5.33996 17.2187 5.40414 16.8955C5.46831 16.5724 5.4111 16.237 5.24346 15.9534C5.06662 15.6534 4.9619 15.3165 4.93755 14.9691C4.91321 14.6217 4.9699 14.2735 5.10317 13.9518C5.23644 13.6301 5.44263 13.3437 5.70548 13.1154C5.96833 12.887 6.28064 12.7228 6.61778 12.6358C6.9368 12.5538 7.21438 12.357 7.39741 12.0831C7.58043 11.8092 7.65605 11.4774 7.60981 11.1512C7.56059 10.8061 7.59238 10.4543 7.70266 10.1236C7.81293 9.79284 7.99866 9.49233 8.24514 9.24582C8.49163 8.99931 8.7921 8.81356 9.12278 8.70327C9.45346 8.59299 9.80527 8.5612 10.1504 8.61041C10.4765 8.65681 10.8083 8.58123 11.0822 8.39816C11.3561 8.2151 11.5529 7.93741 11.6348 7.61828C11.7218 7.2811 11.8859 6.96875 12.1143 6.70588C12.3426 6.443 12.6289 6.23679 12.9506 6.1035C13.2722 5.97022 13.6205 5.91352 13.9678 5.93787C14.3151 5.96222 14.6521 6.06696 14.952 6.24381C15.2358 6.41233 15.5719 6.47003 15.8957 6.40583C16.2195 6.34162 16.5081 6.16004 16.7062 5.89596C16.9146 5.61664 17.1855 5.39008 17.4973 5.23448C17.8091 5.07888 18.1531 4.99858 18.5015 5.00002C18.85 4.99858 19.1939 5.07888 19.5057 5.23448C19.8175 5.39008 20.0885 5.61664 20.2968 5.89596C20.4948 6.15927 20.7829 6.34032 21.106 6.4045C21.429 6.46868 21.7645 6.41147 22.048 6.24381C22.3479 6.06696 22.6849 5.96222 23.0322 5.93787C23.3795 5.91352 23.7278 5.97022 24.0494 6.1035C24.3711 6.23679 24.6574 6.443 24.8858 6.70588C25.1141 6.96875 25.2782 7.2811 25.3652 7.61828C25.4473 7.93734 25.644 8.21495 25.9179 8.39799C26.1918 8.58104 26.5235 8.65667 26.8496 8.61041C27.1947 8.5612 27.5465 8.59299 27.8772 8.70327C28.2079 8.81356 28.5084 8.99931 28.7549 9.24582C29.0013 9.49233 29.1871 9.79284 29.2973 10.1236C29.4076 10.4543 29.4394 10.8061 29.3902 11.1512C29.3441 11.4774 29.4198 11.8091 29.6028 12.083C29.7858 12.3568 30.0633 12.5537 30.3822 12.6358C30.7194 12.7228 31.0317 12.887 31.2945 13.1154C31.5574 13.3437 31.7636 13.6301 31.8968 13.9518C32.0301 14.2735 32.0868 14.6217 32.0624 14.9691C32.0381 15.3165 31.9334 15.6534 31.7565 15.9534C31.5889 16.237 31.5317 16.5724 31.5959 16.8955C31.66 17.2187 31.8411 17.5068 32.1043 17.7048C32.3825 17.9142 32.6082 18.1854 32.7637 18.497C32.9191 18.8086 33 19.1521 33 19.5003C33 19.8485 32.9191 20.192 32.7637 20.5036C32.6082 20.8152 32.3825 21.0864 32.1043 21.2958C31.8411 21.4938 31.66 21.7819 31.5959 22.105C31.5317 22.4281 31.5889 22.7636 31.7565 23.0472C31.9334 23.3471 32.0381 23.6841 32.0624 24.0315C32.0868 24.3788 32.0301 24.7271 31.8968 25.0488C31.7636 25.3705 31.5574 25.6568 31.2945 25.8852C31.0317 26.1136 30.7194 26.2778 30.3822 26.3648C30.0633 26.4469 29.7858 26.6437 29.6028 26.9176C29.4198 27.1915 29.3441 27.5232 29.3902 27.8493C29.4394 28.1945 29.4076 28.5463 29.2973 28.877C29.1871 29.2077 29.0013 29.5082 28.7549 29.7547C28.5084 30.0013 28.2079 30.187 27.8772 30.2973C27.5465 30.4076 27.1947 30.4394 26.8496 30.3902C26.5235 30.3438 26.1917 30.4193 25.9178 30.6024C25.6439 30.7855 25.4471 31.0632 25.3652 31.3823C25.2782 31.7195 25.1141 32.0318 24.8858 32.2947C24.6574 32.5576 24.3711 32.7638 24.0494 32.8971C23.7278 33.0303 23.3795 33.087 23.0322 33.0627C22.6849 33.0383 22.3479 32.9336 22.048 32.7568C21.7645 32.5891 21.429 32.5319 21.106 32.5961C20.7829 32.6602 20.4948 32.8413 20.2968 33.1046C20.088 33.3846 19.8163 33.6115 19.5035 33.767C19.1908 33.9226 18.8459 34.0024 18.4967 33.9999Z" stroke="#D74113" stroke-width="2"/>
<path d="M27.5625 19.5C27.5625 24.5051 23.5051 28.5625 18.5 28.5625C13.4949 28.5625 9.4375 24.5051 9.4375 19.5C9.4375 14.4949 13.4949 10.4375 18.5 10.4375C20.1673 10.4375 21.7294 10.8878 23.0715 11.6733" stroke="#D74113" stroke-width="2" stroke-linecap="round"/>
</svg>
