<svg width="38" height="38" viewBox="0 0 38 38" fill="none" xmlns="http://www.w3.org/2000/svg">
<path d="M5.46938 21.857C4.16428 19.6569 3.70723 17.0561 4.18404 14.5428C4.66085 12.0296 6.03873 9.77689 8.05894 8.20769C10.0792 6.63849 12.6027 5.86075 15.1558 6.02051C17.7088 6.18028 20.1158 7.26655 21.9246 9.07537C23.7334 10.8842 24.8197 13.2911 24.9795 15.8442C25.1393 18.3972 24.3615 20.9208 22.7923 22.941C21.2231 24.9612 18.9704 26.3391 16.4572 26.816C13.944 27.2928 11.3431 26.8357 9.14305 25.5306L9.14307 25.5305L5.51506 26.5671C5.36495 26.61 5.20611 26.612 5.055 26.5728C4.90388 26.5336 4.76598 26.4548 4.6556 26.3444C4.54521 26.234 4.46635 26.0961 4.4272 25.945C4.38804 25.7939 4.39 25.635 4.43289 25.4849L5.46947 21.8569L5.46938 21.857Z" stroke="#D74113" stroke-width="2" stroke-linecap="round" stroke-linejoin="round"/>
<path d="M14 26.9792C14.5058 28.4456 15.3239 29.7792 16.3952 30.8839C17.4665 31.9887 18.7643 32.8371 20.1954 33.368C21.6264 33.8989 23.1549 34.0991 24.6708 33.9543C26.1867 33.8094 27.6522 33.323 28.9619 32.5302L28.9619 32.5301L32.5159 33.567C32.6629 33.6099 32.8185 33.6119 32.9666 33.5727C33.1146 33.5335 33.2497 33.4546 33.3578 33.3442C33.4659 33.2338 33.5432 33.0959 33.5815 32.9447C33.6199 32.7935 33.618 32.6346 33.576 32.4845L32.5605 28.8553L32.5606 28.8554C33.4628 27.3016 33.9577 25.5366 33.9974 23.7307C34.0371 21.9248 33.6204 20.1389 32.7874 18.5454C31.9544 16.9518 30.7333 15.6043 29.2419 14.633C27.7504 13.6617 26.039 13.0993 24.2727 13" stroke="#D74113" stroke-width="2" stroke-linecap="round" stroke-linejoin="round"/>
<path d="M10.3203 14.2334H17.7562" stroke="#D74113" stroke-width="2" stroke-linecap="round" stroke-linejoin="round"/>
<path d="M10.3203 19.3522H17.7562" stroke="#D74113" stroke-width="2" stroke-linecap="round" stroke-linejoin="round"/>
</svg>
